# xmcd CD database file
#
# Track frame offsets:
#       150
#       17635
#       31743
#       40690
#       57612
#       68299
#       87024
#
# Disc length: 1250 seconds
#
# Revision: 1
# Processed by: cddbd v1.4PL0 Copyright (c) Steve Scherf et al.
# Submitted via: jack 2.99.9
#
DISCID=4704e007
DTITLE=Jon-Rae Fletcher - Then Again
DYEAR=1900
DGENRE=
TTITLE0=Then Again
TTITLE1=Happy Blues
TTITLE2=Now Then
TTITLE3=Two Hands
TTITLE4=Nickle and Dime - Waste of Time
TTITLE5=Oliver's Song
TTITLE6=Reprise
EXTD=Relased by Deer and Bird Records (dab002) 2001 (http://deerandbird.com/)
EXTT0=
EXTT1=
EXTT2=
EXTT3=
EXTT4=
EXTT5=
EXTT6=
PLAYORDER=
